<?xml version="1.0" encoding="UTF-8" standalone="no"?>
<!DOCTYPE svg PUBLIC "-//W3C//DTD SVG 1.2 Tiny//EN"
  "http://www.w3.org/Graphics/SVG/1.2/DTD/svg12-tiny.dtd">
<svg height="500" version="1.2" viewBox="0 0 375 374.999991" width="500" xmlns="http://www.w3.org/2000/svg"><defs><g/><linearGradient gradientTransform="matrix(1.464844, 0, 0, 1.464844, 0.0000045, 0)" gradientUnits="userSpaceOnUse" id="53699127f8" x1="-0" x2="255.999988" y1="-0" y2="255.999988"><stop offset="0" stop-color="rgb(85.499573%, 16.099548%, 10.998535%)" stop-opacity="1"/><stop offset="0.25" stop-color="rgb(85.499573%, 16.099548%, 10.998535%)" stop-opacity="1"/><stop offset="0.3125" stop-color="rgb(85.499573%, 16.099548%, 10.998535%)" stop-opacity="1"/><stop offset="0.328125" stop-color="rgb(85.499573%, 16.099548%, 10.998535%)" stop-opacity="1"/><stop offset="0.332031" stop-color="rgb(85.212708%, 16.290283%, 11.328125%)" stop-opacity="1"/><stop offset="0.335938" stop-color="rgb(84.927368%, 16.482544%, 11.657715%)" stop-opacity="1"/><stop offset="0.339844" stop-color="rgb(84.165955%, 16.990662%, 12.533569%)" stop-opacity="1"/><stop offset="0.34375" stop-color="rgb(83.404541%, 17.498779%, 13.409424%)" stop-opacity="1"/><stop offset="0.347656" stop-color="rgb(82.643127%, 18.006897%, 14.285278%)" stop-opacity="1"/><stop offset="0.351562" stop-color="rgb(81.881714%, 18.516541%, 15.162659%)" stop-opacity="1"/><stop offset="0.355469" stop-color="rgb(81.1203%, 19.024658%, 16.038513%)" stop-opacity="1"/><stop offset="0.359375" stop-color="rgb(80.358887%, 19.534302%, 16.914368%)" stop-opacity="1"/><stop offset="0.363281" stop-color="rgb(79.597473%, 20.042419%, 17.790222%)" stop-opacity="1"/><stop offset="0.367188" stop-color="rgb(78.83606%, 20.552063%, 18.666077%)" stop-opacity="1"/><stop offset="0.371094" stop-color="rgb(78.074646%, 21.060181%, 19.541931%)" stop-opacity="1"/><stop offset="0.375" stop-color="rgb(77.313232%, 21.569824%, 20.417786%)" stop-opacity="1"/><stop offset="0.378906" stop-color="rgb(76.551819%, 22.077942%, 21.29364%)" stop-opacity="1"/><stop offset="0.382812" stop-color="rgb(75.790405%, 22.58606%, 22.169495%)" stop-opacity="1"/><stop offset="0.386719" stop-color="rgb(75.028992%, 23.094177%, 23.045349%)" stop-opacity="1"/><stop offset="0.390625" stop-color="rgb(74.267578%, 23.603821%, 23.921204%)" stop-opacity="1"/><stop offset="0.394531" stop-color="rgb(73.506165%, 24.111938%, 24.797058%)" stop-opacity="1"/><stop offset="0.398438" stop-color="rgb(72.744751%, 24.621582%, 25.674438%)" stop-opacity="1"/><stop offset="0.402344" stop-color="rgb(71.983337%, 25.1297%, 26.550293%)" stop-opacity="1"/><stop offset="0.40625" stop-color="rgb(71.221924%, 25.639343%, 27.426147%)" stop-opacity="1"/><stop offset="0.410156" stop-color="rgb(70.46051%, 26.147461%, 28.302002%)" stop-opacity="1"/><stop offset="0.414062" stop-color="rgb(69.699097%, 26.657104%, 29.177856%)" stop-opacity="1"/><stop offset="0.417969" stop-color="rgb(68.937683%, 27.165222%, 30.053711%)" stop-opacity="1"/><stop offset="0.421875" stop-color="rgb(68.17627%, 27.674866%, 30.929565%)" stop-opacity="1"/><stop offset="0.425781" stop-color="rgb(67.414856%, 28.182983%, 31.80542%)" stop-opacity="1"/><stop offset="0.429688" stop-color="rgb(66.653442%, 28.691101%, 32.681274%)" stop-opacity="1"/><stop offset="0.433594" stop-color="rgb(65.892029%, 29.199219%, 33.557129%)" stop-opacity="1"/><stop offset="0.4375" stop-color="rgb(65.130615%, 29.708862%, 34.432983%)" stop-opacity="1"/><stop offset="0.441406" stop-color="rgb(64.369202%, 30.21698%, 35.308838%)" stop-opacity="1"/><stop offset="0.445312" stop-color="rgb(63.607788%, 30.726624%, 36.186218%)" stop-opacity="1"/><stop offset="0.449219" stop-color="rgb(62.846375%, 31.234741%, 37.062073%)" stop-opacity="1"/><stop offset="0.453125" stop-color="rgb(62.084961%, 31.744385%, 37.937927%)" stop-opacity="1"/><stop offset="0.457031" stop-color="rgb(61.323547%, 32.252502%, 38.813782%)" stop-opacity="1"/><stop offset="0.460938" stop-color="rgb(60.56366%, 32.762146%, 39.689636%)" stop-opacity="1"/><stop offset="0.464844" stop-color="rgb(59.802246%, 33.270264%, 40.565491%)" stop-opacity="1"/><stop offset="0.46875" stop-color="rgb(59.040833%, 33.779907%, 41.441345%)" stop-opacity="1"/><stop offset="0.472656" stop-color="rgb(58.279419%, 34.288025%, 42.3172%)" stop-opacity="1"/><stop offset="0.476562" stop-color="rgb(57.518005%, 34.796143%, 43.193054%)" stop-opacity="1"/><stop offset="0.480469" stop-color="rgb(56.756592%, 35.30426%, 44.068909%)" stop-opacity="1"/><stop offset="0.484375" stop-color="rgb(55.995178%, 35.813904%, 44.944763%)" stop-opacity="1"/><stop offset="0.488281" stop-color="rgb(55.233765%, 36.322021%, 45.820618%)" stop-opacity="1"/><stop offset="0.492188" stop-color="rgb(54.472351%, 36.831665%, 46.697998%)" stop-opacity="1"/><stop offset="0.496094" stop-color="rgb(53.710938%, 37.339783%, 47.573853%)" stop-opacity="1"/><stop offset="0.5" stop-color="rgb(52.949524%, 37.849426%, 48.449707%)" stop-opacity="1"/><stop offset="0.503906" stop-color="rgb(52.18811%, 38.357544%, 49.325562%)" stop-opacity="1"/><stop offset="0.507812" stop-color="rgb(51.426697%, 38.867188%, 50.201416%)" stop-opacity="1"/><stop offset="0.511719" stop-color="rgb(50.665283%, 39.375305%, 51.077271%)" stop-opacity="1"/><stop offset="0.515625" stop-color="rgb(49.90387%, 39.884949%, 51.953125%)" stop-opacity="1"/><stop offset="0.519531" stop-color="rgb(49.142456%, 40.393066%, 52.828979%)" stop-opacity="1"/><stop offset="0.523438" stop-color="rgb(48.381042%, 40.901184%, 53.704834%)" stop-opacity="1"/><stop offset="0.527344" stop-color="rgb(47.619629%, 41.409302%, 54.580688%)" stop-opacity="1"/><stop offset="0.53125" stop-color="rgb(46.858215%, 41.918945%, 55.456543%)" stop-opacity="1"/><stop offset="0.535156" stop-color="rgb(46.096802%, 42.427063%, 56.332397%)" stop-opacity="1"/><stop offset="0.539062" stop-color="rgb(45.335388%, 42.936707%, 57.209778%)" stop-opacity="1"/><stop offset="0.542969" stop-color="rgb(44.573975%, 43.444824%, 58.085632%)" stop-opacity="1"/><stop offset="0.546875" stop-color="rgb(43.812561%, 43.954468%, 58.961487%)" stop-opacity="1"/><stop offset="0.550781" stop-color="rgb(43.051147%, 44.462585%, 59.837341%)" stop-opacity="1"/><stop offset="0.554688" stop-color="rgb(42.289734%, 44.972229%, 60.713196%)" stop-opacity="1"/><stop offset="0.558594" stop-color="rgb(41.52832%, 45.480347%, 61.58905%)" stop-opacity="1"/><stop offset="0.5625" stop-color="rgb(40.766907%, 45.988464%, 62.464905%)" stop-opacity="1"/><stop offset="0.566406" stop-color="rgb(40.005493%, 46.496582%, 63.340759%)" stop-opacity="1"/><stop offset="0.570312" stop-color="rgb(39.24408%, 47.006226%, 64.216614%)" stop-opacity="1"/><stop offset="0.574219" stop-color="rgb(38.482666%, 47.514343%, 65.092468%)" stop-opacity="1"/><stop offset="0.578125" stop-color="rgb(37.721252%, 48.023987%, 65.968323%)" stop-opacity="1"/><stop offset="0.582031" stop-color="rgb(36.959839%, 48.532104%, 66.844177%)" stop-opacity="1"/><stop offset="0.585938" stop-color="rgb(36.198425%, 49.041748%, 67.721558%)" stop-opacity="1"/><stop offset="0.589844" stop-color="rgb(35.437012%, 49.549866%, 68.597412%)" stop-opacity="1"/><stop offset="0.59375" stop-color="rgb(34.677124%, 50.059509%, 69.473267%)" stop-opacity="1"/><stop offset="0.597656" stop-color="rgb(33.91571%, 50.567627%, 70.349121%)" stop-opacity="1"/><stop offset="0.601563" stop-color="rgb(33.154297%, 51.077271%, 71.224976%)" stop-opacity="1"/><stop offset="0.605469" stop-color="rgb(32.392883%, 51.585388%, 72.10083%)" stop-opacity="1"/><stop offset="0.609375" stop-color="rgb(31.63147%, 52.093506%, 72.976685%)" stop-opacity="1"/><stop offset="0.613281" stop-color="rgb(30.870056%, 52.601624%, 73.852539%)" stop-opacity="1"/><stop offset="0.617188" stop-color="rgb(30.108643%, 53.111267%, 74.728394%)" stop-opacity="1"/><stop offset="0.621094" stop-color="rgb(29.347229%, 53.619385%, 75.604248%)" stop-opacity="1"/><stop offset="0.625" stop-color="rgb(28.585815%, 54.129028%, 76.480103%)" stop-opacity="1"/><stop offset="0.628906" stop-color="rgb(27.824402%, 54.637146%, 77.355957%)" stop-opacity="1"/><stop offset="0.632812" stop-color="rgb(27.062988%, 55.14679%, 78.233337%)" stop-opacity="1"/><stop offset="0.636719" stop-color="rgb(26.301575%, 55.654907%, 79.109192%)" stop-opacity="1"/><stop offset="0.640625" stop-color="rgb(25.540161%, 56.164551%, 79.985046%)" stop-opacity="1"/><stop offset="0.644531" stop-color="rgb(24.778748%, 56.672668%, 80.860901%)" stop-opacity="1"/><stop offset="0.648438" stop-color="rgb(24.017334%, 57.182312%, 81.736755%)" stop-opacity="1"/><stop offset="0.652344" stop-color="rgb(23.25592%, 57.69043%, 82.61261%)" stop-opacity="1"/><stop offset="0.65625" stop-color="rgb(22.494507%, 58.198547%, 83.488464%)" stop-opacity="1"/><stop offset="0.660156" stop-color="rgb(21.733093%, 58.706665%, 84.364319%)" stop-opacity="1"/><stop offset="0.664063" stop-color="rgb(20.97168%, 59.216309%, 85.240173%)" stop-opacity="1"/><stop offset="0.667969" stop-color="rgb(20.684814%, 59.407043%, 85.569763%)" stop-opacity="1"/><stop offset="0.671875" stop-color="rgb(20.399475%, 59.599304%, 85.899353%)" stop-opacity="1"/><stop offset="0.6875" stop-color="rgb(20.399475%, 59.599304%, 85.899353%)" stop-opacity="1"/><stop offset="0.75" stop-color="rgb(20.399475%, 59.599304%, 85.899353%)" stop-opacity="1"/><stop offset="1" stop-color="rgb(20.399475%, 59.599304%, 85.899353%)" stop-opacity="1"/></linearGradient><clipPath id="8f95201144"><path clip-rule="nonzero" d="M 0 131.25 L 375 131.25 L 375 243.75 L 0 243.75 Z M 0 131.25 "/></clipPath><clipPath id="1cc2dad7ea"><path clip-rule="nonzero" d="M 131.25 0 L 243.75 0 L 243.75 375 L 131.25 375 Z M 131.25 0 "/></clipPath></defs><rect fill="#ffffff" fill-opacity="1" height="449.999989" width="450" x="-37.5" y="-37.499999"/><rect fill="#ffffff" fill-opacity="1" height="449.999989" width="450" x="-37.5" y="-37.499999"/><rect fill="url(#53699127f8)" height="449.999989" width="450" x="-37.5" y="-37.499999"/><g clip-path="url(#8f95201144)"><path d="M 0 131.25 L 374.851562 131.25 L 374.851562 243.75 L 0 243.75 Z M 0 131.25 " fill="#ffffff" fill-opacity="1" fill-rule="nonzero"/></g><g clip-path="url(#1cc2dad7ea)"><path d="M 243.75 0 L 243.75 374.851562 L 131.25 374.851562 L 131.25 0 Z M 243.75 0 " fill="#ffffff" fill-opacity="1" fill-rule="nonzero"/></g><g fill="#000000" fill-opacity="1"><g transform="translate(69.040365, 222.378883)"><g><path d="M 36.078125 -55.640625 C 30.347656 -55.640625 25.851562 -53.796875 22.59375 -50.109375 C 19.34375 -46.421875 17.71875 -40.960938 17.71875 -33.734375 C 17.71875 -28.878906 18.414062 -24.695312 19.8125 -21.1875 C 21.207031 -17.675781 23.269531 -14.984375 26 -13.109375 C 28.726562 -11.234375 32.039062 -10.296875 35.9375 -10.296875 C 38.726562 -10.296875 41.476562 -10.710938 44.1875 -11.546875 C 46.90625 -12.390625 49.238281 -13.609375 51.1875 -15.203125 L 51.1875 -24.25 L 35.8125 -24.25 L 35.8125 -35.40625 L 64.453125 -35.40625 L 64.453125 -9.125 C 62.453125 -7.207031 59.9375 -5.46875 56.90625 -3.90625 C 53.875 -2.351562 50.550781 -1.125 46.9375 -0.21875 C 43.320312 0.675781 39.671875 1.125 35.984375 1.125 C 29.265625 1.125 23.5 -0.304688 18.6875 -3.171875 C 13.875 -6.035156 10.210938 -10.046875 7.703125 -15.203125 C 5.203125 -20.359375 3.953125 -26.34375 3.953125 -33.15625 C 3.953125 -39.957031 5.285156 -45.914062 7.953125 -51.03125 C 10.628906 -56.144531 14.394531 -60.09375 19.25 -62.875 C 24.113281 -65.664062 29.722656 -67.0625 36.078125 -67.0625 C 43.597656 -67.0625 49.625 -65.441406 54.15625 -62.203125 C 58.6875 -58.972656 61.851562 -54.148438 63.65625 -47.734375 L 50.375 -45.25 C 49.414062 -48.632812 47.738281 -51.210938 45.34375 -52.984375 C 42.945312 -54.753906 39.859375 -55.640625 36.078125 -55.640625 Z M 36.078125 -55.640625 "/></g></g></g><g fill="#000000" fill-opacity="1"><g transform="translate(139.075787, 222.378883)"><g><path d="M 53.3125 -65.9375 L 73.328125 -65.9375 L 73.328125 0 L 60.953125 0 L 60.953125 -51.953125 L 46.609375 0 L 33.828125 0 L 19.296875 -51.953125 L 19.296875 0 L 6.921875 0 L 6.921875 -65.9375 L 26.859375 -65.9375 L 40.265625 -19.25 Z M 53.3125 -65.9375 "/></g></g></g><g fill="#000000" fill-opacity="1"><g transform="translate(219.321891, 222.378883)"><g><path d="M 28.390625 -56.09375 C 25.566406 -56.09375 23.203125 -55.519531 21.296875 -54.375 C 19.390625 -53.238281 18.4375 -51.640625 18.4375 -49.578125 C 18.4375 -48.191406 18.867188 -47.007812 19.734375 -46.03125 C 20.609375 -45.0625 22.09375 -44.171875 24.1875 -43.359375 C 26.289062 -42.554688 29.28125 -41.703125 33.15625 -40.796875 C 38.96875 -39.453125 43.5 -37.828125 46.75 -35.921875 C 50.007812 -34.015625 52.289062 -31.734375 53.59375 -29.078125 C 54.894531 -26.421875 55.546875 -23.128906 55.546875 -19.203125 C 55.546875 -14.648438 54.351562 -10.847656 51.96875 -7.796875 C 49.59375 -4.753906 46.453125 -2.503906 42.546875 -1.046875 C 38.648438 0.398438 34.378906 1.125 29.734375 1.125 C 22.265625 1.125 16.21875 -0.773438 11.59375 -4.578125 C 6.976562 -8.390625 4.164062 -13.863281 3.15625 -21 L 16.421875 -22.625 C 17.203125 -18.3125 18.675781 -15.132812 20.84375 -13.09375 C 23.019531 -11.050781 26.101562 -10.03125 30.09375 -10.03125 C 32.488281 -10.03125 34.609375 -10.367188 36.453125 -11.046875 C 38.296875 -11.722656 39.726562 -12.675781 40.75 -13.90625 C 41.769531 -15.132812 42.28125 -16.585938 42.28125 -18.265625 C 42.28125 -20.179688 41.910156 -21.675781 41.171875 -22.75 C 40.441406 -23.832031 39.003906 -24.816406 36.859375 -25.703125 C 34.710938 -26.585938 31.363281 -27.570312 26.8125 -28.65625 C 21.445312 -29.945312 17.203125 -31.535156 14.078125 -33.421875 C 10.960938 -35.304688 8.75 -37.476562 7.4375 -39.9375 C 6.132812 -42.40625 5.484375 -45.285156 5.484375 -48.578125 C 5.484375 -52.179688 6.40625 -55.375 8.25 -58.15625 C 10.09375 -60.945312 12.785156 -63.128906 16.328125 -64.703125 C 19.867188 -66.273438 24.097656 -67.0625 29.015625 -67.0625 C 36.085938 -67.0625 41.71875 -65.4375 45.90625 -62.1875 C 50.09375 -58.9375 52.691406 -54.207031 53.703125 -48 L 40.4375 -46.515625 C 40.019531 -49.929688 38.835938 -52.378906 36.890625 -53.859375 C 34.941406 -55.347656 32.109375 -56.09375 28.390625 -56.09375 Z M 28.390625 -56.09375 "/></g></g></g><g fill="#000000" fill-opacity="1"><g transform="translate(278.831747, 222.378883)"><g><path d="M 6.921875 0 L 6.921875 -65.9375 L 20.203125 -65.9375 L 20.203125 0 Z M 6.921875 0 "/></g></g></g></svg>
